<?xml version="1.0" encoding="UTF-8" standalone="no"?>
<svg
   xmlns:dc="http://purl.org/dc/elements/1.1/"
   xmlns:cc="http://creativecommons.org/ns#"
   xmlns:rdf="http://www.w3.org/1999/02/22-rdf-syntax-ns#"
   xmlns:svg="http://www.w3.org/2000/svg"
   xmlns="http://www.w3.org/2000/svg"
   xmlns:sodipodi="http://sodipodi.sourceforge.net/DTD/sodipodi-0.dtd"
   xmlns:inkscape="http://www.inkscape.org/namespaces/inkscape"
   width="768.73901"
   height="548.07397"
   version="1.1"
   id="svg2"
   inkscape:version="0.48.5 r10040"
   sodipodi:docname="capricorn.svg">
  <metadata
     id="metadata42">
    <rdf:RDF>
      <cc:Work
         rdf:about="">
        <dc:format>image/svg+xml</dc:format>
        <dc:type
           rdf:resource="http://purl.org/dc/dcmitype/StillImage" />
      </cc:Work>
    </rdf:RDF>
  </metadata>
  <sodipodi:namedview
     pagecolor="#ffffff"
     bordercolor="#666666"
     borderopacity="1"
     objecttolerance="10"
     gridtolerance="10"
     guidetolerance="10"
     inkscape:pageopacity="0"
     inkscape:pageshadow="2"
     inkscape:window-width="910"
     inkscape:window-height="648"
     id="namedview40"
     showgrid="false"
     showguides="true"
     inkscape:guide-bbox="true"
     inkscape:zoom="1.4644275"
     inkscape:cx="332.59183"
     inkscape:cy="110.65844"
     inkscape:window-x="346"
     inkscape:window-y="214"
     inkscape:window-maximized="0"
     inkscape:current-layer="svg2"
     fit-margin-top="0"
     fit-margin-left="0"
     fit-margin-right="0"
     fit-margin-bottom="0" />
  <defs
     id="defs4">
    <filter
       height="1"
       width="1"
       y="0"
       x="0"
       color-interpolation-filters="sRGB"
       id="filter6">
      <feColorMatrix
         type="luminanceToAlpha"
         result="fbSourceGraphic"
         id="feColorMatrix8" />
      <feFlood
         flood-color="rgb(134,39,24)"
         result="result1"
         in="fbSourceGraphic"
         flood-opacity="1"
         id="feFlood10" />
      <feComposite
         operator="out"
         in2="fbSourceGraphic"
         result="result2"
         id="feComposite12" />
      <feComposite
         operator="in"
         in2="SourceGraphic"
         id="feComposite14" />
    </filter>
  </defs>
  <path
     d="m 149.918,340.094 22.22,19.19 291.43,181.83 59.09,-73.24 63.13,-98.49 66.16,-136.37 105.56,-226.78"
     style="opacity:0.70999995;fill:none;stroke:#f7f6f1;stroke-opacity:0.97000002"
     id="path16"
     inkscape:connector-curvature="0" />
  <path
     d="m 707.018,111.294 -313.14,83.34 -181.83,-24.25 -120.17,8.08 -86.88,-23.2 145.71,183.57"
     style="opacity:0.70999995;fill:none;stroke:#f7f6f1;stroke-opacity:0.97000002"
     id="path18"
     inkscape:connector-curvature="0" />
  <path
     d="m 392.606,194.064 1.6256,8.7232 -5.312,-7.1104 -7.8016,4.2432 5.12,-7.2512 -6.4448,-6.1056 8.48,2.6304 3.8144,-8.0128 0.1152,8.8768 8.8,1.152 z"
     style="fill:#f7f6f1;stroke:#f7f6f1;stroke-width:0.32639998;stroke-linecap:square;stroke-linejoin:round;stroke-opacity:0.52999998"
     id="path20"
     inkscape:connector-curvature="0" />
  <path
     d="m 163.864,349.192 -7.904,-1.76 -2.864,7.576 -0.776,-8.056 -8.088,-0.392 7.432,-3.224 -2.128,-7.816 5.36,6.064 6.768,-4.44 -4.112,6.976 z"
     style="fill:#f7f6f1;stroke:#f7f6f1;stroke-width:0.51199996;stroke-linecap:square;stroke-linejoin:round;stroke-opacity:0.52999998"
     id="path22"
     inkscape:connector-curvature="0" />
  <path
     d="m 223.374,177.177 -8.488,-2.24 -3.432,8.08 -0.488,-8.76 -8.744,-0.768 8.184,-3.176 -1.976,-8.552 5.544,6.8 7.52,-4.52 -4.752,7.376 z"
     style="fill:#f7f6f1;stroke:#f7f6f1;stroke-width:0.80000001;stroke-linecap:square;stroke-linejoin:round;stroke-opacity:0.52999998"
     id="path24"
     inkscape:connector-curvature="0" />
  <path
     d="m 87.115,172.743 6.472,3.648 4.536,-5.88 -1.472,7.28 6.992,2.496 -7.376,0.856 -0.208,7.424 -3.088,-6.752 -7.128,2.096 5.464,-5.024 z"
     style="fill:#f7f6f1;stroke:#f7f6f1;stroke-width:0.80000001;stroke-linecap:square;stroke-linejoin:round;stroke-opacity:0.52999998"
     id="path26"
     inkscape:connector-curvature="0" />
  <path
     d="m 18.416,159.009 -7.416,0.32 -0.744,7.392 -2.6,-6.96 -7.25599999,1.576 5.81599999,-4.624 -3.744,-6.416 6.192,4.104 4.944,-5.544 -1.984,7.16 z"
     style="fill:#f7f6f1;stroke:#f7f6f1;stroke-width:0.80000001;stroke-linecap:square;stroke-linejoin:round;stroke-opacity:0.52999998"
     id="path28"
     inkscape:connector-curvature="0" />
  <path
     d="m 758.811,23.008 -3.848,-8.472 -8.936,2.6 6.872,-6.28 -5.232,-7.696 8.088,4.592 5.704,-7.35199999 -1.872,9.11199999 8.752,3.152 -9.248,1.04 z"
     style="opacity:0.70999995;fill:#f7f6f1;stroke:#f7f6f1;stroke-width:0.80000001;stroke-linecap:square;stroke-linejoin:round;stroke-opacity:0.52999998"
     id="path30"
     inkscape:connector-curvature="0" />
  <path
     d="m 698.628,110.426 5.608,1.976 2.752,-5.272 -0.144,5.944 5.864,0.992 -5.696,1.704 0.872,5.888 -3.384,-4.896 -5.328,2.648 3.608,-4.728 z"
     style="fill:#f7f6f1;stroke:#f7f6f1;stroke-width:0.80000001;stroke-linecap:square;stroke-linejoin:round;stroke-opacity:0.52999998"
     id="path32"
     inkscape:connector-curvature="0" />
  <path
     d="m 462.383,547.674 -0.456,-5.984 -5.984,-0.4 5.552,-2.28 -1.464,-5.816 3.888,4.576 5.08,-3.192 -3.144,5.112 4.608,3.848 -5.832,-1.416 z"
     style="fill:#f7f6f1;stroke:#f7f6f1;stroke-width:0.80000001;stroke-linecap:square;stroke-linejoin:round;stroke-opacity:0.52999998"
     id="path34"
     inkscape:connector-curvature="0" />
  <path
     d="m 656.538,231.914 -1.68,-7.22 -7.39,0.63 6.35,-3.83 -2.88,-6.83 5.6,4.85 5.6,-4.85 -2.88,6.83 6.35,3.83 -7.39,-0.63 z"
     style="fill:#f7f6f1;stroke:#f7f6f1;stroke-linecap:square;stroke-linejoin:round;stroke-opacity:0.52999998"
     id="path36"
     inkscape:connector-curvature="0" />
  <path
     d="m 531.374,463.877 -6.016,2.336 1.456,6.288 -4.08,-5 -5.528,3.328 3.488,-5.424 -4.872,-4.232 6.24,1.64 2.52,-5.936 0.368,6.44 z"
     style="fill:#f7f6f1;stroke:#f7f6f1;stroke-width:0.80000001;stroke-linecap:square;stroke-linejoin:round;stroke-opacity:0.52999998"
     id="path38"
     inkscape:connector-curvature="0" />
  <g
     inkscape:groupmode="layer"
     id="layer1"
     inkscape:label="Layer"
     transform="translate(-22.332,-22.936)" />
</svg>
