<?xml version="1.0" encoding="UTF-8" standalone="no"?>
<svg
   xmlns:dc="http://purl.org/dc/elements/1.1/"
   xmlns:cc="http://creativecommons.org/ns#"
   xmlns:rdf="http://www.w3.org/1999/02/22-rdf-syntax-ns#"
   xmlns:svg="http://www.w3.org/2000/svg"
   xmlns="http://www.w3.org/2000/svg"
   xmlns:sodipodi="http://sodipodi.sourceforge.net/DTD/sodipodi-0.dtd"
   xmlns:inkscape="http://www.inkscape.org/namespaces/inkscape"
   width="160.95419"
   height="87.71933"
   version="1.1"
   id="svg2"
   inkscape:version="0.48.5 r10040"
   sodipodi:docname="ursa-min.svg">
  <metadata
     id="metadata38">
    <rdf:RDF>
      <cc:Work
         rdf:about="">
        <dc:format>image/svg+xml</dc:format>
        <dc:type
           rdf:resource="http://purl.org/dc/dcmitype/StillImage" />
      </cc:Work>
    </rdf:RDF>
  </metadata>
  <sodipodi:namedview
     pagecolor="#ffffff"
     bordercolor="#666666"
     borderopacity="1"
     objecttolerance="10"
     gridtolerance="10"
     guidetolerance="10"
     inkscape:pageopacity="0"
     inkscape:pageshadow="2"
     inkscape:window-width="640"
     inkscape:window-height="480"
     id="namedview36"
     showgrid="false"
     fit-margin-top="0"
     fit-margin-left="0"
     fit-margin-right="0"
     fit-margin-bottom="0"
     inkscape:zoom="1.6655673"
     inkscape:cx="80.959999"
     inkscape:cy="43.381768"
     inkscape:window-x="0"
     inkscape:window-y="0"
     inkscape:window-maximized="0"
     inkscape:current-layer="svg2" />
  <defs
     id="defs4">
    <filter
       height="1"
       width="1"
       y="0"
       x="0"
       color-interpolation-filters="sRGB"
       id="filter6">
      <feColorMatrix
         type="luminanceToAlpha"
         result="fbSourceGraphic"
         id="feColorMatrix8" />
      <feFlood
         flood-color="rgb(134,39,24)"
         result="result1"
         in="fbSourceGraphic"
         flood-opacity="1"
         id="feFlood10" />
      <feComposite
         operator="out"
         in2="fbSourceGraphic"
         result="result2"
         id="feComposite12" />
      <feComposite
         operator="in"
         in2="SourceGraphic"
         id="feComposite14" />
    </filter>
  </defs>
  <g
     transform="translate(-120.5,-432.08)"
     id="g16">
    <path
       d="m 123.75,450.86 63.25,-15.25 0.75,34.75 -45.25,9.75 z"
       style="fill:none;stroke:#f1ece8"
       id="path18"
       inkscape:connector-curvature="0" />
    <path
       d="m 187.75,470.11 29.5,4.5 35.75,15 25.5,27.5"
       style="fill:none;stroke:#f1ece8"
       id="path20"
       inkscape:connector-curvature="0" />
    <path
       d="m 120.25,450.11 4.57,-0.07 0.59,-4.54 1.48,4.33 4.5,-0.84 -3.66,2.74 2.19,4.02 -3.74,-2.63 -3.14,3.33 1.35,-4.37 z"
       transform="matrix(0.64,0,0,0.64,197.04459,227.35133)"
       style="fill:#f1ece8;fill-rule:evenodd;stroke:#f1ece8;stroke-linecap:square;stroke-linejoin:round;stroke-miterlimit:4;stroke-opacity:0.97000002"
       id="path22"
       inkscape:connector-curvature="0" />
    <path
       d="m 186.75,434.11 -2.49,-0.42 -0.77,2.41 -0.37,-2.5 -2.53,0.01 2.26,-1.13 -0.79,-2.4 1.77,1.8 2.04,-1.5 -1.17,2.24 z"
       transform="translate(2.75,2.5)"
       style="fill:#f1ece8;fill-rule:evenodd;stroke:#f1ece8;stroke-linecap:square;stroke-linejoin:round;stroke-miterlimit:4;stroke-opacity:0.97000002"
       id="path24"
       inkscape:connector-curvature="0" />
    <path
       d="m 146,479.86 -3.14,-1.47 -1.9,2.89 0.42,-3.43 -3.34,-0.91 3.4,-0.66 -0.17,-3.46 1.68,3.03 3.24,-1.23 -2.36,2.53 z"
       transform="matrix(0.8,0,0,0.8,28.4249,97.912081)"
       style="fill:#f1ece8;fill-rule:evenodd;stroke:#f1ece8;stroke-linecap:square;stroke-linejoin:round;stroke-miterlimit:4;stroke-opacity:0.97000002"
       id="path26"
       inkscape:connector-curvature="0" />
    <path
       d="m 122.25,450.36 2.49,0.42 0.77,-2.41 0.37,2.5 2.53,-0.01 -2.26,1.13 0.79,2.4 -1.77,-1.8 -2.04,1.5 1.17,-2.24 z"
       transform="translate(-1.25,-0.5)"
       style="fill:#f1ece8;fill-rule:evenodd;stroke:#f1ece8;stroke-linecap:square;stroke-linejoin:round;stroke-miterlimit:4;stroke-opacity:0.97000002"
       id="path28"
       inkscape:connector-curvature="0" />
    <path
       d="m 189.5,469.61 -2.32,0.34 0.01,2.34 -1.04,-2.1 -2.22,0.73 1.67,-1.64 -1.38,-1.89 2.07,1.09 1.37,-1.9 -0.39,2.31 z"
       transform="translate(1.25,1)"
       style="fill:#f1ece8;fill-rule:evenodd;stroke:#f1ece8;stroke-linecap:square;stroke-linejoin:round;stroke-miterlimit:4;stroke-opacity:0.97000002"
       id="path30"
       inkscape:connector-curvature="0" />
    <path
       d="m 220.75,475.61 -1.21,-0.92 -1.08,1.07 0.5,-1.43 -1.35,-0.7 1.52,0.03 0.25,-1.5 0.44,1.45 1.5,-0.23 -1.24,0.87 z"
       transform="matrix(1.15,0,0,1.15,-33.168993,-70.094634)"
       style="fill:#f1ece8;fill-rule:evenodd;stroke:#f1ece8;stroke-linecap:square;stroke-linejoin:round;stroke-miterlimit:4;stroke-opacity:0.97000002"
       id="path32"
       inkscape:connector-curvature="0" />
    <path
       d="m 253,491.86 1.4,-1.72 -1.5,-1.63 2.07,0.79 1.08,-1.93 -0.12,2.21 2.17,0.43 -2.14,0.57 0.26,2.2 -1.21,-1.86 z"
       transform="translate(-2,0)"
       style="fill:#f1ece8;fill-rule:evenodd;stroke:#f1ece8;stroke-linecap:square;stroke-linejoin:round;stroke-miterlimit:4;stroke-opacity:0.97000002"
       id="path34"
       inkscape:connector-curvature="0" />
  </g>
</svg>
