<?xml version="1.0" encoding="UTF-8" standalone="no"?>
<svg
   xmlns:dc="http://purl.org/dc/elements/1.1/"
   xmlns:cc="http://creativecommons.org/ns#"
   xmlns:rdf="http://www.w3.org/1999/02/22-rdf-syntax-ns#"
   xmlns:svg="http://www.w3.org/2000/svg"
   xmlns="http://www.w3.org/2000/svg"
   xmlns:sodipodi="http://sodipodi.sourceforge.net/DTD/sodipodi-0.dtd"
   xmlns:inkscape="http://www.inkscape.org/namespaces/inkscape"
   width="414.91382"
   height="196.13158"
   version="1.1"
   id="svg2"
   inkscape:version="0.48.5 r10040"
   sodipodi:docname="ursa-maj.svg">
  <metadata
     id="metadata44">
    <rdf:RDF>
      <cc:Work
         rdf:about="">
        <dc:format>image/svg+xml</dc:format>
        <dc:type
           rdf:resource="http://purl.org/dc/dcmitype/StillImage" />
      </cc:Work>
    </rdf:RDF>
  </metadata>
  <sodipodi:namedview
     pagecolor="#ffffff"
     bordercolor="#666666"
     borderopacity="1"
     objecttolerance="10"
     gridtolerance="10"
     guidetolerance="10"
     inkscape:pageopacity="0"
     inkscape:pageshadow="2"
     inkscape:window-width="640"
     inkscape:window-height="480"
     id="namedview42"
     showgrid="false"
     fit-margin-top="0"
     fit-margin-left="0"
     fit-margin-right="0"
     fit-margin-bottom="0"
     inkscape:zoom="0.6894198"
     inkscape:cx="205.16096"
     inkscape:cy="99.483999"
     inkscape:window-x="0"
     inkscape:window-y="0"
     inkscape:window-maximized="0"
     inkscape:current-layer="svg2" />
  <defs
     id="defs4">
    <filter
       height="1"
       width="1"
       y="0"
       x="0"
       color-interpolation-filters="sRGB"
       id="filter6">
      <feColorMatrix
         type="luminanceToAlpha"
         result="fbSourceGraphic"
         id="feColorMatrix8" />
      <feFlood
         flood-color="rgb(134,39,24)"
         result="result1"
         in="fbSourceGraphic"
         flood-opacity="1"
         id="feFlood10" />
      <feComposite
         operator="out"
         in2="fbSourceGraphic"
         result="result2"
         id="feComposite12" />
      <feComposite
         operator="in"
         in2="SourceGraphic"
         id="feComposite14" />
    </filter>
  </defs>
  <g
     transform="translate(-115.30619,-426.76843)"
     id="g16">
    <path
       d="m 119.7,434.15 44.95,9.09 94.45,74.25 113.14,20.2 89.4,34.35 39.9,28.79 22.73,15.66 -169.71,-27.27 -93.44,-9.6 -2.02,-63.13"
       style="opacity:0.43999999;fill:none;stroke:#f1ece8"
       id="path18"
       inkscape:connector-curvature="0" />
    <path
       d="M 368.2,537.18 353.05,588.7"
       style="fill:none;stroke:#f1ece8"
       id="path20"
       inkscape:connector-curvature="0" />
    <path
       d="m 227.5,423.79 -2.36,4.54 4.16,2.99 -5.05,-0.84 -1.56,4.88 -0.76,-5.06 -5.12,0.03 4.58,-2.29 -1.61,-4.86 3.59,3.65 z"
       transform="translate(35.714286,88.214286)"
       style="fill:#f1ece8;fill-rule:evenodd;stroke:#f1ece8;stroke-linecap:square;stroke-linejoin:round;stroke-miterlimit:4;stroke-opacity:0.97000002"
       id="path22"
       inkscape:connector-curvature="0" />
    <path
       d="m 181.07,459.15 -1.17,-2.58 -2.72,0.79 2.09,-1.91 -1.59,-2.34 2.46,1.4 1.74,-2.24 -0.57,2.77 2.66,0.96 -2.81,0.32 z"
       style="fill:#f1ece8;fill-rule:evenodd;stroke:#f1ece8;stroke-linecap:square;stroke-linejoin:round;stroke-miterlimit:4;stroke-opacity:0.97000002"
       id="path24"
       inkscape:connector-curvature="0" />
    <path
       d="m 164.64,445.58 -1.38,-2.25 -2.42,1.04 1.71,-2 -1.74,-1.98 2.43,1.01 1.34,-2.27 -0.2,2.63 2.57,0.58 -2.56,0.62 z"
       style="fill:#f1ece8;fill-rule:evenodd;stroke:#f1ece8;stroke-linecap:square;stroke-linejoin:round;stroke-miterlimit:4;stroke-opacity:0.97000002"
       id="path26"
       inkscape:connector-curvature="0" />
    <path
       d="m 127.14,433.08 -6.62,0.97 0.02,6.69 -2.97,-5.99 -6.36,2.08 4.78,-4.67 -3.94,-5.4 5.92,3.1 3.92,-5.42 -1.12,6.59 z"
       transform="translate(4.5961941,2.8284271)"
       style="fill:#f1ece8;fill-rule:evenodd;stroke:#f1ece8;stroke-linecap:square;stroke-linejoin:round;stroke-miterlimit:4;stroke-opacity:0.97000002"
       id="path28"
       inkscape:connector-curvature="0" />
    <path
       d="m 370.36,538.79 -3.6,-2.01 -2.51,3.28 0.8,-4.05 -3.89,-1.37 4.1,-0.49 0.1,-4.13 1.73,3.75 3.96,-1.18 -3.03,2.81 z"
       transform="translate(0.71428572,2.8571429)"
       style="fill:#f1ece8;fill-rule:evenodd;stroke:#f1ece8;stroke-linecap:square;stroke-linejoin:round;stroke-miterlimit:4;stroke-opacity:0.97000002"
       id="path30"
       inkscape:connector-curvature="0" />
    <path
       d="m 349.29,584.51 5.21,2.78 3.49,-4.76 -1.03,5.81 5.61,1.85 -5.85,0.81 -0.03,5.9 -2.58,-5.31 -5.62,1.8 4.25,-4.1 z"
       transform="translate(-1.7857143,-1.0714286)"
       style="fill:#f1ece8;fill-rule:evenodd;stroke:#f1ece8;stroke-linecap:square;stroke-linejoin:round;stroke-miterlimit:4;stroke-opacity:0.97000002"
       id="path32"
       inkscape:connector-curvature="0" />
    <path
       d="m 219.64,484.51 -3.48,-1.47 -1.95,3.23 0.32,-3.76 -3.68,-0.86 3.68,-0.85 -0.32,-3.76 1.95,3.23 3.48,-1.47 -2.47,2.85 z"
       transform="translate(0,1.7857143)"
       style="fill:#f1ece8;fill-rule:evenodd;stroke:#f1ece8;stroke-linecap:square;stroke-linejoin:round;stroke-miterlimit:4;stroke-opacity:0.97000002"
       id="path34"
       inkscape:connector-curvature="0" />
    <path
       d="m 264.29,579.51 -4.62,-1.49 -2.13,4.36 -0.01,-4.86 -4.81,-0.68 4.62,-1.51 -0.84,-4.78 2.87,3.92 4.29,-2.28 -2.85,3.94 z"
       transform="translate(2.5,1.0714286)"
       style="fill:#f1ece8;fill-rule:evenodd;stroke:#f1ece8;stroke-linecap:square;stroke-linejoin:round;stroke-miterlimit:4;stroke-opacity:0.97000002"
       id="path36"
       inkscape:connector-curvature="0" />
    <path
       d="m 460,572.72 -1.71,-2.45 -2.67,1.34 1.8,-2.39 -2.1,-2.13 2.83,0.98 1.37,-2.66 -0.06,2.99 2.95,0.48 -2.86,0.87 z"
       style="fill:#f1ece8;fill-rule:evenodd;stroke:#f1ece8;stroke-linecap:square;stroke-linejoin:round;stroke-miterlimit:4;stroke-opacity:0.97000002"
       id="path38"
       inkscape:connector-curvature="0" />
    <path
       d="m 519.64,614.51 4.02,1.35 1.91,-3.79 -0.04,4.24 4.19,0.64 -4.04,1.27 0.68,4.18 -2.46,-3.45 -3.77,1.94 2.52,-3.41 z"
       style="fill:#f1ece8;fill-rule:evenodd;stroke:#f1ece8;stroke-linecap:square;stroke-linejoin:round;stroke-miterlimit:4;stroke-opacity:0.97000002"
       id="path40"
       inkscape:connector-curvature="0" />
  </g>
</svg>
